<?xml version="1.0" encoding="UTF-8" standalone="no"?>
<svg width="46px" height="46px" viewBox="0 0 46 46" version="1.1" xmlns="http://www.w3.org/2000/svg" xmlns:xlink="http://www.w3.org/1999/xlink" xmlns:sketch="http://www.bohemiancoding.com/sketch/ns">
    <defs>
        <filter x="-50%" y="-50%" width="200%" height="200%" filterUnits="objectBoundingBox" id="filter-1">
            <feOffset dx="0" dy="1" in="SourceAlpha" result="shadowOffsetOuter1"/>
            <feGaussianBlur stdDeviation="0.5" in="shadowOffsetOuter1" result="shadowBlurOuter1"/>
            <feColorMatrix values="0 0 0 0 0   0 0 0 0 0   0 0 0 0 0  0 0 0 0.168 0" in="shadowBlurOuter1" type="matrix" result="shadowMatrixOuter1"/>
            <feOffset dx="0" dy="0" in="SourceAlpha" result="shadowOffsetOuter2"/>
            <feGaussianBlur stdDeviation="0.5" in="shadowOffsetOuter2" result="shadowBlurOuter2"/>
            <feColorMatrix values="0 0 0 0 0   0 0 0 0 0   0 0 0 0 0  0 0 0 0.084 0" in="shadowBlurOuter2" type="matrix" result="shadowMatrixOuter2"/>
            <feMerge>
                <feMergeNode in="shadowMatrixOuter1"/>
                <feMergeNode in="shadowMatrixOuter2"/>
                <feMergeNode in="SourceGraphic"/>
            </feMerge>
        </filter>
    </defs>
    <g id="Google-Button" stroke="none" stroke-width="1" fill="none" fill-rule="evenodd" sketch:type="MSPage">
        <g id="btn_google_light_normal" sketch:type="MSArtboardGroup">
            <g id="button" sketch:type="MSLayerGroup" transform="translate(4.000000, 4.000000)">
                <path d="M40,20 C40,31.0457 31.0457,40 20,40 C8.95431,40 0,31.0457 0,20 C0,8.95431 8.95431,0 20,0 C31.0457,0 40,8.95431 40,20 Z" fill="#FFFFFF"/>
                <path d="M29.6,20.2273 C29.6,19.5182 29.5364,18.8364 29.4182,18.1818 L20,18.1818 L20,22.0500 L25.4,22.0500 C25.1,23.6000 24.1,24.8682 22.6,25.6364 L22.6,28.2273 L26.4,28.2273 C28.4,26.4091 29.6,23.5909 29.6,20.2273 L29.6,20.2273 Z" id="Shape" fill="#4285F4" sketch:type="MSShapeGroup"/>
                <path d="M20,30 C23.2,30 25.8,28.8 27.7,26.9 L23.9,24.3 C22.7,25.1 21.4,25.6 20,25.6 C17.1,25.6 14.7,23.7 13.9,21.1 L10,21.1 L10,23.8 C11.8,27.5 15.6,30 20,30 L20,30 Z" id="Shape" fill="#34A853" sketch:type="MSShapeGroup"/>
                <path d="M13.9,21.1 C13.7,20.3 13.5,19.5 13.5,18.6 C13.5,17.7 13.7,16.9 13.9,16.1 L13.9,13.4 L10,13.4 C9.4,14.7 9,16.1 9,17.6 C9,19.1 9.4,20.5 10,21.8 L13.9,21.1 L13.9,21.1 Z" id="Shape" fill="#FBBC05" sketch:type="MSShapeGroup"/>
                <path d="M20,11.6 C21.7,11.6 23.2,12.2 24.4,13.3 L27.7,10 C25.8,8.2 23.2,7 20,7 C15.6,7 11.8,9.5 10,13.2 L13.9,15.9 C14.7,13.3 17.1,11.6 20,11.6 L20,11.6 Z" id="Shape" fill="#EA4335" sketch:type="MSShapeGroup"/>
            </g>
        </g>
    </g>
</svg>
